<svg width="83" height="22" viewBox="0 0 83 22" fill="none" xmlns="http://www.w3.org/2000/svg">
<path d="M0.728111 0C1.03856 1.14758 4.4252 13.3232 5.4412 16.2901C6.28786 18.8372 8.99718 21.4682 13.8514 22C14.2747 21.972 69.9671 22 70.8138 22H71.1807C71.35 22 71.5193 22 71.6887 22C77.5871 21.7481 82.272 16.9338 82.272 11.028C82.272 7.9771 81.0302 5.2341 79.0264 3.24682C77.0227 1.23155 74.2287 0 71.1807 0H0.728111Z" fill="#FEEE00"/>
<path d="M30.9042 10.6452V14.7598H27.8899C27.2157 14.7598 26.5811 14.4802 26.2241 14.2006C25.8275 14.5601 25.3516 14.7598 24.7567 14.7598H23.4082V15.3591C23.4082 16.7173 22.2184 18.4351 19.1644 18.4351C15.6742 18.4351 15 16.2379 15 14.9596C15 14.0408 15.357 12.0434 15.6346 10.6452L17.4987 10.765C17.221 12.1632 16.9037 14.0807 16.9037 14.6799C16.9037 15.4789 17.459 16.6374 19.1644 16.6374C20.6716 16.6374 21.4251 15.7585 21.4251 14.7998V8.12848H23.4082V12.9622H24.0824C24.8757 12.9622 25.2326 12.2431 25.2326 11.3643V8.12848H27.2157V11.3643C27.2157 11.8436 27.176 12.2831 27.057 12.7225C27.2157 12.8423 27.533 13.0021 27.8503 13.0021H28.9608V10.9648C28.9608 9.92614 28.9608 9.28697 28.8021 7.44936L30.5076 7.36947C30.6662 8.40811 30.9042 10.046 30.9042 10.6452Z" fill="#404553"/>
<path d="M38.4795 14.7598H35.9016V14.9196C35.9016 17.1967 35.148 18.4351 33.4822 18.4351C33.1649 18.4351 32.7683 18.3951 32.3717 18.3552V16.5974C32.6097 16.6374 32.8476 16.6374 32.9666 16.6374C33.6409 16.6374 33.9185 16.0781 33.9185 15.1993V7.36947H35.9016V12.9622H38.4795L38.6382 13.881L38.4795 14.7598Z" fill="#404553"/>
<path d="M44.9839 13.8411L44.8253 14.7599H38.1622L38.0432 13.8411L38.2019 12.9223H40.5419V7.32957H42.5249V12.9223H44.865L44.9839 13.8411ZM40.5815 15.9583H42.3663V17.8758H40.5419L40.5815 15.9583Z" fill="#404553"/>
<path d="M57.9533 13.8411L57.7947 14.7599H53.3923C52.718 14.7599 52.0835 14.4803 51.7265 14.2006C51.3299 14.5602 50.854 14.7599 50.259 14.7599H44.5478L44.3892 13.8411L44.5478 12.9223H46.9275V8.08859H48.9106V12.9223H49.5848C50.378 12.9223 50.735 12.2032 50.735 11.3244V8.08859H52.718V11.3244C52.718 11.8037 52.6784 12.2432 52.5594 12.6826C52.718 12.8024 53.0353 12.9622 53.3526 12.9622H54.4631V10.9249C54.4631 9.88624 54.4631 9.24708 54.3045 7.40947L56.0099 7.32957C56.1686 8.40817 56.4065 10.046 56.4065 10.6453V12.9622H57.7947L57.9533 13.8411Z" fill="#404553"/>
<path d="M66.163 11.1645V14.7598H57.5168L57.3582 13.841L57.5168 12.9222H64.1799V11.0846C64.1799 10.046 63.6246 9.32691 62.9504 9.32691H59.0239L57.9927 7.96868L58.8653 6.25091C59.3016 5.41201 60.0948 4.37336 60.6104 3.81409L62.0778 4.65299C61.7606 5.09242 61.126 6.09112 60.65 7.04987L60.3724 7.5692H63.2677C65.8457 7.5692 66.163 10.2058 66.163 11.1645Z" fill="#404553"/>
<path d="M70.8828 18.5149L67.6702 19.1541L67.5116 18.4749L68.1858 18.3152C67.7892 17.9556 67.6306 17.5561 67.6306 17.1167C67.6306 16.3178 68.2255 15.6386 69.1774 15.6386C69.693 15.6386 70.1292 15.8783 70.3275 15.9982L70.1292 16.877C70.0499 16.8371 69.812 16.6773 69.4947 16.6773C69.0187 16.6773 68.7411 17.0368 68.7411 17.4363C68.7411 17.676 68.8601 17.9157 69.098 18.1154L70.6845 17.676L70.8828 18.5149ZM70.1689 14.7598H68.1858V4.41327H70.1689V14.7598Z" fill="#404553"/>
</svg>
