<svg width="106" height="44" viewBox="0 0 106 44" fill="none" xmlns="http://www.w3.org/2000/svg">
<path d="M87.9519 9.6839C86.8725 9.25062 85.7067 9.03397 84.5409 9.03397C83.8501 9.03397 83.1593 9.12063 82.4684 9.25062L79.7051 14.0601C80.8493 13.4318 82.123 13.1285 83.4399 13.1502C84.2387 13.1502 85.0159 13.2585 85.7931 13.4751L87.9519 9.6839ZM71.2424 22.6174C71.2424 29.55 77.1145 34.9444 83.958 34.9444C91.1255 34.9444 96.9112 29.1384 96.9112 22.0758C96.9112 17.938 94.9251 14.2984 91.9674 11.872L89.8086 15.6199C91.7084 17.2447 92.831 19.6278 92.831 22.1408C92.831 26.9503 88.8587 30.8932 83.9796 30.8932C79.1006 30.8932 75.1499 26.9286 75.1499 22.0325C75.1499 22.0325 75.1499 22.0325 75.1499 22.0108C75.1499 21.4259 75.1931 20.841 75.301 20.2777L71.2424 22.6174Z" fill="black"/>
<path d="M56.2167 26.9936C59.455 26.9936 62.0672 24.3506 62.0888 21.1009V17.808H59.5845V21.1226C59.5845 22.9857 58.0733 24.5239 56.1951 24.5239H39.6798V21.2742C39.6798 18.1113 37.1324 15.5549 33.9804 15.5549C30.8285 15.5549 28.2811 18.1113 28.2811 21.2742C28.2811 24.4372 30.8285 26.9936 33.9804 26.9936H37.1971C37.0029 29.485 34.9303 31.3914 32.4477 31.3914V33.8828C36.2904 33.8828 39.464 30.8498 39.6798 26.9936H56.2167ZM31.4978 23.354C30.3536 21.9892 30.5263 19.9311 31.8864 18.7829C33.2464 17.6347 35.2974 17.808 36.4415 19.1728C36.9381 19.7578 37.1971 20.4943 37.1971 21.2526V24.4806H33.9804C33.009 24.5022 32.1022 24.0906 31.4978 23.354Z" fill="black"/>
<path d="M23.4884 17.808H21.0057V23.159C21.0057 25.8021 18.8684 27.9468 16.2346 27.9468C13.6008 27.9468 11.4635 25.8021 11.4635 23.159V17.808H9.00245V23.159C9.00245 27.1669 12.2407 30.4382 16.2562 30.4382C20.2717 30.4382 23.51 27.1886 23.51 23.159C23.51 23.159 23.51 17.808 23.4884 17.808Z" fill="black"/>
<path d="M16.2562 15.0566C17.0193 15.0566 17.6379 14.4359 17.6379 13.6701C17.6379 12.9044 17.0193 12.2836 16.2562 12.2836C15.4931 12.2836 14.8745 12.9044 14.8745 13.6701C14.8745 14.4359 15.4931 15.0566 16.2562 15.0566Z" fill="black"/>
<path d="M56.411 15.0566C57.1741 15.0566 57.7927 14.4359 57.7927 13.6701C57.7927 12.9044 57.1741 12.2836 56.411 12.2836C55.6479 12.2836 55.0293 12.9044 55.0293 13.6701C55.0293 14.4359 55.6479 15.0566 56.411 15.0566Z" fill="black"/>
</svg>
